<svg width="1945" height="1115" viewBox="0 0 1945 1115" fill="none" xmlns="http://www.w3.org/2000/svg">
<g id="lagoom-tourist-bus-loaf 1" clip-path="url(#clip0_0_1)">
<path id="Vector" d="M1765.05 949.718L1357.7 950.5L1389.42 896.117C1394.42 887.611 1401.54 880.544 1410.08 875.602C1418.62 870.661 1428.29 868.013 1438.16 867.917L1672.86 865.036C1683.58 864.882 1694.17 867.398 1703.67 872.359C1713.17 877.319 1721.29 884.567 1727.29 893.449L1765.05 949.718Z" fill="black"/>
<path id="Vector_2" d="M1573.21 1114.26C1655.23 1114.26 1721.72 1048.35 1721.72 967.049C1721.72 885.746 1655.23 819.836 1573.21 819.836C1491.2 819.836 1424.71 885.746 1424.71 967.049C1424.71 1048.35 1491.2 1114.26 1573.21 1114.26Z" fill="#0E131C"/>
<path id="Vector_3" d="M1574.12 1082.8C1636.69 1082.8 1687.42 1031.33 1687.42 967.827C1687.42 904.329 1636.69 852.854 1574.12 852.854C1511.54 852.854 1460.82 904.329 1460.82 967.827C1460.82 1031.33 1511.54 1082.8 1574.12 1082.8ZM1574.22 871.051C1593.37 871.051 1612.09 876.73 1628.02 887.371C1643.94 898.012 1656.36 913.137 1663.69 930.833C1671.02 948.528 1672.93 968 1669.2 986.786C1665.46 1005.57 1656.24 1022.83 1642.69 1036.37C1629.15 1049.91 1611.9 1059.14 1593.11 1062.87C1574.32 1066.61 1554.85 1064.69 1537.16 1057.36C1519.46 1050.03 1504.34 1037.62 1493.7 1021.69C1483.05 1005.77 1477.37 987.046 1477.38 967.892C1477.37 955.175 1479.88 942.581 1484.74 930.832C1489.61 919.082 1496.74 908.406 1505.74 899.413C1514.73 890.42 1525.4 883.286 1537.15 878.419C1548.9 873.552 1561.5 871.046 1574.21 871.046L1574.22 871.051Z" fill="#645D6A"/>
<path id="Vector_4" d="M1573.92 1054.73C1590.99 1054.73 1607.69 1049.67 1621.88 1040.18C1636.08 1030.7 1647.15 1017.21 1653.68 1001.43C1660.22 985.659 1661.93 968.299 1658.59 951.551C1655.26 934.803 1647.04 919.419 1634.97 907.345C1622.89 895.271 1607.51 887.048 1590.76 883.717C1574.01 880.387 1556.65 882.097 1540.87 888.632C1525.1 895.167 1511.61 906.234 1502.13 920.433C1492.64 934.631 1487.58 951.324 1487.58 968.4C1487.58 991.297 1496.68 1013.26 1512.87 1029.45C1529.06 1045.64 1551.02 1054.73 1573.92 1054.73ZM1573.39 896.341C1587.89 896.341 1602.06 900.64 1614.11 908.694C1626.17 916.749 1635.56 928.197 1641.11 941.59C1646.66 954.984 1648.11 969.722 1645.28 983.941C1642.45 998.16 1635.47 1011.22 1625.22 1021.47C1614.97 1031.72 1601.91 1038.7 1587.69 1041.53C1573.47 1044.36 1558.73 1042.91 1545.34 1037.36C1531.94 1031.81 1520.5 1022.42 1512.44 1010.36C1504.39 998.31 1500.09 984.138 1500.09 969.641C1500.09 950.201 1507.81 931.556 1521.56 917.81C1535.3 904.064 1553.95 896.341 1573.39 896.341Z" fill="#B5CDD2"/>
<path id="Vector_5" d="M1573.86 1034.9C1586.94 1034.9 1599.72 1031.02 1610.59 1023.76C1621.46 1016.5 1629.93 1006.17 1634.93 994.095C1639.94 982.017 1641.25 968.727 1638.69 955.905C1636.14 943.082 1629.85 931.304 1620.6 922.06C1611.36 912.816 1599.58 906.521 1586.76 903.97C1573.94 901.42 1560.65 902.729 1548.57 907.732C1536.49 912.734 1526.17 921.207 1518.9 932.077C1511.64 942.947 1507.77 955.727 1507.77 968.8C1507.77 986.331 1514.73 1003.14 1527.13 1015.54C1539.52 1027.94 1556.33 1034.9 1573.86 1034.9ZM1574.21 944.981C1579.49 944.981 1584.65 946.546 1589.04 949.478C1593.43 952.41 1596.85 956.578 1598.87 961.454C1600.89 966.33 1601.42 971.696 1600.39 976.873C1599.36 982.05 1596.82 986.805 1593.08 990.537C1589.35 994.269 1584.6 996.811 1579.42 997.84C1574.24 998.87 1568.88 998.341 1564 996.321C1559.12 994.302 1554.96 990.881 1552.03 986.492C1549.09 982.104 1547.53 976.944 1547.53 971.666C1547.53 964.589 1550.34 957.802 1555.34 952.798C1560.35 947.794 1567.14 944.983 1574.21 944.983V944.981Z" fill="#B5CDD2"/>
<path id="Vector_6" d="M1573.78 1054.73C1591.66 1054.73 1609.11 1049.17 1623.7 1038.83C1638.3 1028.49 1649.32 1013.87 1655.24 996.991C1653.39 988.379 1650.45 980.039 1646.48 972.172C1646.15 982.124 1643.79 991.903 1639.55 1000.91C1635.31 1009.92 1629.28 1017.98 1621.83 1024.58C1614.37 1031.18 1605.65 1036.19 1596.2 1039.31C1586.74 1042.43 1576.75 1043.59 1566.83 1042.72C1556.91 1041.85 1547.27 1038.97 1538.5 1034.25C1529.74 1029.53 1522.02 1023.08 1515.83 1015.28C1509.64 1007.48 1505.11 998.498 1502.5 988.887C1499.9 979.276 1499.28 969.236 1500.68 959.378C1495.67 966.435 1491.6 974.11 1488.56 982.212C1491.84 1002.45 1502.22 1020.86 1517.83 1034.15C1533.44 1047.43 1553.28 1054.73 1573.78 1054.73V1054.73Z" fill="#D2D2D2"/>
<path id="Vector_7" d="M1573.72 1034.9C1583.15 1034.91 1592.47 1032.91 1601.05 1029.02C1609.64 1025.13 1617.29 1019.45 1623.49 1012.35C1629.7 1005.26 1634.31 996.923 1637.03 987.898C1639.74 978.873 1640.49 969.372 1639.23 960.033C1623.14 937.033 1597.99 922.226 1569.72 922.226C1547.34 922.226 1526.91 931.514 1511.39 946.8C1507.87 956.769 1506.8 967.437 1508.26 977.907C1509.71 988.377 1513.66 998.345 1519.77 1006.97C1525.87 1015.6 1533.96 1022.64 1543.35 1027.5C1552.74 1032.36 1563.15 1034.9 1573.72 1034.9V1034.9ZM1574.07 944.981C1579.35 944.981 1584.51 946.546 1588.9 949.478C1593.29 952.411 1596.71 956.579 1598.73 961.455C1600.75 966.331 1601.28 971.697 1600.25 976.874C1599.22 982.05 1596.68 986.805 1592.94 990.537C1589.21 994.269 1584.46 996.811 1579.28 997.84C1574.1 998.87 1568.74 998.341 1563.86 996.321C1558.98 994.301 1554.82 990.881 1551.88 986.492C1548.95 982.104 1547.39 976.944 1547.39 971.666C1547.39 964.589 1550.2 957.802 1555.2 952.798C1560.21 947.794 1567 944.983 1574.07 944.983V944.981Z" fill="white"/>
<path id="Vector_8" d="M557.051 949.718C544.141 862.718 472.562 796.142 386.172 796.142C299.782 796.142 228.2 862.718 215.292 949.718H557.051Z" fill="black"/>
<path id="Vector_9" d="M381.024 1114.26C463.04 1114.26 529.528 1048.35 529.528 967.049C529.528 885.746 463.04 819.836 381.024 819.836C299.008 819.836 232.52 885.746 232.52 967.049C232.52 1048.35 299.008 1114.26 381.024 1114.26Z" fill="#0E131C"/>
<path id="Vector_10" d="M381.927 1082.8C444.498 1082.8 495.227 1031.33 495.227 967.827C495.227 904.329 444.5 852.849 381.927 852.849C319.354 852.849 268.627 904.324 268.627 967.822C268.627 1031.32 319.355 1082.8 381.927 1082.8ZM382.027 871.051C401.181 871.051 419.904 876.731 435.83 887.372C451.755 898.013 464.168 913.138 471.497 930.833C478.827 948.529 480.745 968.001 477.008 986.786C473.271 1005.57 464.048 1022.83 450.504 1036.37C436.961 1049.91 419.705 1059.14 400.919 1062.87C382.134 1066.61 362.662 1064.69 344.966 1057.36C327.271 1050.03 312.146 1037.62 301.505 1021.69C290.864 1005.77 285.185 987.046 285.185 967.892C285.184 955.174 287.689 942.581 292.555 930.832C297.422 919.082 304.555 908.406 313.547 899.413C322.539 890.42 333.215 883.286 344.964 878.419C356.713 873.552 369.306 871.046 382.024 871.046L382.027 871.051Z" fill="#645D6A"/>
<path id="Vector_11" d="M381.727 1054.73C398.803 1054.73 415.496 1049.67 429.694 1040.18C443.892 1030.7 454.958 1017.21 461.492 1001.43C468.027 985.659 469.736 968.299 466.405 951.551C463.073 934.803 454.85 919.419 442.775 907.345C430.7 895.271 415.316 887.048 398.568 883.717C381.82 880.387 364.46 882.097 348.684 888.632C332.909 895.167 319.425 906.234 309.938 920.433C300.452 934.631 295.389 951.324 295.39 968.4C295.391 991.297 304.487 1013.26 320.679 1029.45C336.87 1045.64 358.83 1054.73 381.727 1054.73V1054.73ZM381.2 896.341C395.697 896.341 409.869 900.64 421.923 908.694C433.977 916.749 443.372 928.197 448.92 941.59C454.468 954.984 455.92 969.722 453.092 983.941C450.263 998.16 443.282 1011.22 433.031 1021.47C422.78 1031.72 409.719 1038.7 395.5 1041.53C381.281 1044.36 366.543 1042.91 353.149 1037.36C339.755 1031.81 328.308 1022.42 320.253 1010.36C312.199 998.31 307.9 984.138 307.9 969.641C307.9 950.201 315.623 931.556 329.369 917.81C343.115 904.064 361.76 896.341 381.2 896.341Z" fill="#B5CDD2"/>
<path id="Vector_12" d="M381.675 1034.9C394.748 1034.9 407.528 1031.02 418.398 1023.76C429.268 1016.5 437.74 1006.17 442.743 994.095C447.746 982.017 449.055 968.727 446.505 955.905C443.954 943.082 437.659 931.304 428.415 922.06C419.171 912.816 407.393 906.521 394.57 903.97C381.748 901.42 368.458 902.729 356.38 907.732C344.301 912.734 333.978 921.207 326.715 932.077C319.452 942.947 315.575 955.727 315.575 968.8C315.575 986.331 322.539 1003.14 334.935 1015.54C347.331 1027.94 364.144 1034.9 381.675 1034.9V1034.9ZM382.024 944.981C387.302 944.981 392.462 946.546 396.85 949.478C401.239 952.411 404.659 956.579 406.679 961.455C408.699 966.331 409.227 971.697 408.197 976.874C407.167 982.05 404.626 986.805 400.893 990.537C397.161 994.269 392.406 996.811 387.23 997.84C382.053 998.87 376.687 998.341 371.811 996.321C366.935 994.301 362.767 990.881 359.835 986.492C356.903 982.104 355.338 976.944 355.338 971.666C355.339 964.589 358.15 957.802 363.155 952.798C368.159 947.794 374.947 944.983 382.024 944.983V944.981Z" fill="#B5CDD2"/>
<path id="Vector_13" d="M381.824 1054.8C399.711 1054.8 417.157 1049.24 431.75 1038.9C446.343 1028.55 457.364 1013.93 463.291 997.057C461.438 988.445 458.494 980.104 454.529 972.238C454.193 982.188 451.833 991.965 447.593 1000.97C443.354 1009.98 437.323 1018.03 429.87 1024.63C422.416 1031.23 413.696 1036.24 404.242 1039.36C394.787 1042.48 384.796 1043.64 374.879 1042.77C364.961 1041.9 355.325 1039.02 346.558 1034.3C337.791 1029.58 330.077 1023.13 323.887 1015.33C317.697 1007.53 313.16 998.556 310.554 988.948C307.948 979.339 307.327 969.3 308.729 959.444C303.719 966.5 299.642 974.175 296.6 982.277C299.883 1002.52 310.26 1020.92 325.874 1034.21C341.488 1047.5 361.321 1054.8 381.824 1054.8V1054.8Z" fill="#D2D2D2"/>
<path id="Vector_14" d="M381.773 1034.97C391.197 1034.98 400.515 1032.97 409.099 1029.09C417.684 1025.2 425.336 1019.51 431.542 1012.42C437.747 1005.33 442.363 996.99 445.077 987.965C447.791 978.941 448.542 969.439 447.278 960.1C431.187 937.1 406.039 922.292 377.772 922.292C355.387 922.292 334.96 931.58 319.435 946.867C315.919 956.837 314.845 967.504 316.303 977.974C317.761 988.445 321.709 998.413 327.815 1007.04C333.921 1015.67 342.007 1022.71 351.396 1027.57C360.785 1032.43 371.202 1034.97 381.773 1034.97V1034.97ZM382.121 945.048C387.399 945.048 392.559 946.613 396.947 949.545C401.336 952.478 404.756 956.646 406.776 961.522C408.796 966.398 409.324 971.764 408.294 976.941C407.264 982.117 404.723 986.872 400.991 990.604C397.258 994.336 392.503 996.878 387.327 997.907C382.15 998.937 376.784 998.408 371.908 996.388C367.032 994.368 362.864 990.948 359.932 986.559C357 982.171 355.435 977.011 355.435 971.733C355.435 968.229 356.125 964.759 357.466 961.521C358.807 958.283 360.773 955.341 363.251 952.864C365.729 950.386 368.671 948.42 371.909 947.079C375.146 945.738 378.617 945.048 382.121 945.048V945.048Z" fill="white"/>
<path id="Vector_15" d="M1860.93 187.051C1859.99 180.639 1856.78 174.778 1851.88 170.532C1846.99 166.285 1840.73 163.935 1834.25 163.906H1863.66C1764.24 96.5785 1646.9 60.6436 1526.83 60.753L522.438 61.67C402.803 60.9637 285.775 96.6164 186.855 163.906H248.878L118.015 402.906C100.917 434.132 87.8758 467.413 79.207 501.942L36.229 673.139L1909.29 516.013L1860.93 187.051ZM104.333 465.781C103.443 465.748 102.577 465.485 101.818 465.018C101.06 464.551 100.435 463.895 100.006 463.115C99.5759 462.335 99.3555 461.457 99.3659 460.566C99.3763 459.676 99.6172 458.803 100.065 458.033L239.532 197.946C240.291 196.502 241.42 195.286 242.805 194.422C244.189 193.559 245.778 193.08 247.409 193.034L254.709 192.91L113.126 465.91L104.333 465.781ZM567.4 434.973C567.438 443.454 564.224 451.627 558.421 457.812C554.594 459.503 550.455 460.375 546.271 460.371H164.451C155.251 460.371 149.242 450.304 153.305 441.694L265.505 203.934C266.969 200.836 268.913 197.989 271.266 195.498C275.095 193.797 279.237 192.916 283.426 192.91H536.186C553.425 192.91 567.401 207.485 567.401 225.464L567.4 434.973ZM878.978 436.473C878.98 442.308 877.323 448.024 874.201 452.954C868.468 458.355 860.889 461.365 853.012 461.369H685.482C677.254 461.345 669.37 458.065 663.552 452.247C657.734 446.429 654.455 438.545 654.431 430.317V218.651C654.43 212.816 656.086 207.1 659.207 202.17C664.94 196.769 672.519 193.759 680.396 193.755H847.922C856.15 193.779 864.034 197.058 869.852 202.876C875.67 208.694 878.95 216.578 878.974 224.806L878.978 436.473ZM1173.52 435.628C1173.52 441.463 1171.86 447.179 1168.74 452.109C1163.01 457.51 1155.43 460.52 1147.55 460.524H980.022C971.794 460.5 963.91 457.22 958.092 451.402C952.274 445.584 948.994 437.7 948.97 429.472V217.806C948.969 211.971 950.625 206.255 953.746 201.325C959.48 195.924 967.059 192.914 974.936 192.91H1142.46C1150.69 192.934 1158.57 196.213 1164.39 202.031C1170.21 207.849 1173.49 215.733 1173.51 223.961L1173.52 435.628ZM1467.57 436.473C1467.57 442.308 1465.92 448.024 1462.8 452.954C1457.06 458.355 1449.48 461.365 1441.61 461.369H1274.08C1265.85 461.345 1257.96 458.065 1252.15 452.247C1246.33 446.429 1243.05 438.545 1243.03 430.317V218.651C1243.02 212.816 1244.68 207.1 1247.8 202.17C1253.53 196.769 1261.11 193.759 1268.99 193.755H1436.52C1444.74 193.779 1452.63 197.058 1458.45 202.876C1464.26 208.694 1467.54 216.578 1467.57 224.806L1467.57 436.473ZM1782.83 429.086V219.882C1782.82 213.593 1784.61 207.432 1787.98 202.127C1793.59 196.776 1801.04 193.779 1808.79 193.755H1852.3L1887.89 461.371H1813.88C1796.79 461.371 1782.82 446.843 1782.82 429.088L1782.83 429.086Z" fill="#F3D5CD"/>
<path id="Vector_16" d="M1860.93 187.051C1859.96 180.551 1855.03 170.573 1847.6 167.585C1862.33 283.754 1892.16 463.009 1891.71 517.485L1909.29 516.01L1860.93 187.051Z" fill="#F4E8E3"/>
<path id="Vector_17" d="M307.932 650.346L364.584 645.594L527.092 460.371H465.6C421.842 513.4 365.815 580.846 307.932 650.346V650.346Z" fill="#F4E8E3"/>
<path id="Vector_18" d="M186.855 163.906H248.878L118.015 402.906C100.917 434.132 87.8758 467.413 79.207 501.942L36.229 673.139L260.623 654.315L415.423 460.371H164.451C155.251 460.371 149.242 450.304 153.305 441.694L265.505 203.934C266.969 200.836 268.913 197.989 271.266 195.498C275.095 193.797 279.237 192.916 283.426 192.91H466.888C485.888 152.967 534.096 107.79 635.147 61.568L522.438 61.668C402.802 60.9623 285.775 96.6156 186.855 163.906V163.906ZM113.123 465.906L104.329 465.778C103.439 465.745 102.573 465.482 101.814 465.015C101.056 464.548 100.431 463.892 100.002 463.112C99.5719 462.332 99.3515 461.454 99.3619 460.563C99.3723 459.673 99.6131 458.8 100.061 458.03L239.532 197.946C240.291 196.502 241.42 195.286 242.805 194.422C244.189 193.559 245.778 193.08 247.409 193.034L254.709 192.91L113.123 465.906Z" fill="#F4E8E3"/>
<path id="Vector_19" d="M1897.29 504.013C1897.29 504.013 341.051 514.24 248.219 514.833C170.172 518.633 50.757 523.902 27.928 721.463L11.338 955.569C11.3472 958.749 12.6145 961.796 14.8629 964.044C17.1114 966.293 20.1583 967.56 23.338 967.569L213.538 966.787C219.038 871.578 294.211 796.142 386.171 796.142C477.671 796.142 552.571 870.827 558.725 965.366L1350.93 962.105L1389.41 896.117C1394.41 887.611 1401.53 880.544 1410.07 875.602C1418.61 870.661 1428.29 868.013 1438.15 867.917L1672.86 865.036C1683.58 864.882 1694.16 867.398 1703.66 872.359C1713.17 877.319 1721.28 884.567 1727.28 893.449L1772.19 960.375L1849.35 960.057C1864.67 960.012 1879.36 953.904 1890.19 943.068C1901.03 932.232 1907.14 917.547 1907.18 902.222L1909.29 516.016C1909.28 512.836 1908.02 509.789 1905.77 507.54C1903.52 505.291 1900.47 504.023 1897.29 504.013V504.013Z" fill="#A8342F"/>
<path id="Vector_20" d="M27.928 721.463L11.338 955.569C11.3386 958.32 12.29 960.985 14.031 963.115C117.178 833.888 264.444 649.386 372.488 514.022C306.267 514.456 261.733 514.746 248.219 514.833C170.172 518.634 50.757 523.9 27.928 721.463V721.463Z" fill="#D96A62"/>
<path id="Vector_21" d="M421.372 513.7C298.511 661.969 122.044 872.994 42.957 967.489L82.184 967.327L480.515 513.315L421.372 513.7Z" fill="#D96A62"/>
<path id="Vector_22" d="M1907.19 902.219L1909.29 516.013C1909.28 512.833 1908.02 509.786 1905.77 507.538C1903.52 505.289 1900.47 504.022 1897.29 504.013L1891.24 504.052C1891.48 508.919 1891.64 513.367 1891.71 517.339C1892.89 584.639 1886.99 841.261 1884.41 948.122C1891.48 942.735 1897.21 935.792 1901.16 927.831C1905.11 919.87 1907.17 911.106 1907.19 902.219V902.219Z" fill="#D96A62"/>
<path id="Vector_23" d="M187.855 967.569H185.855V954.687C185.855 852.613 269.463 769.551 372.23 769.53L579.816 769.802L579.8 502.377C580.08 493.206 577.045 485.165 571.026 479.093C563.205 471.205 551.151 467.193 536.163 467.537L536.119 465.537C551.669 465.198 564.23 469.398 572.446 477.685C578.862 484.156 582.096 492.705 581.8 502.407L581.818 771.807H580.818L372.232 771.534C270.569 771.555 187.858 853.72 187.858 954.691L187.855 967.569Z" fill="#2B252C"/>
<path id="Vector_24" d="M1093.09 177.086L1857.83 177.886C1854.72 170.896 1844.28 163.906 1835.23 163.906H1562.52V66.924H1587.02C1589.07 66.9182 1591.03 66.1015 1592.48 64.6524C1593.93 63.2032 1594.75 61.2394 1594.75 59.19C1594.75 57.1405 1593.93 55.1766 1592.48 53.7273C1591.03 52.278 1589.07 51.4611 1587.02 51.455H1562.52V15.469H1586.17C1588.2 15.4458 1590.15 14.6208 1591.58 13.1728C1593.01 11.7248 1593.81 9.77072 1593.81 7.7345C1593.81 5.69828 1593.01 3.7442 1591.58 2.29621C1590.15 0.848228 1588.2 0.0231519 1586.17 0L1066.43 0C1064.4 0.0231519 1062.45 0.848228 1061.02 2.29621C1059.59 3.7442 1058.79 5.69828 1058.79 7.7345C1058.79 9.77072 1059.59 11.7248 1061.02 13.1728C1062.45 14.6208 1064.4 15.4458 1066.43 15.469H1088.39C1088.36 15.6599 1088.34 15.8526 1088.33 16.046V51.455H1067.28C1065.23 51.4611 1063.27 52.278 1061.82 53.7273C1060.37 55.1766 1059.55 57.1405 1059.55 59.19C1059.55 61.2394 1060.37 63.2032 1061.82 64.6524C1063.27 66.1015 1065.23 66.9182 1067.28 66.924H1088.33V163.906H248.878L242.148 176.197L1092.99 177.086H1093.04C1093.04 177.086 1093.07 177.087 1093.09 177.086V177.086ZM1553.1 163.906H1324.17C1324.64 163.517 1325.02 163.031 1325.28 162.48C1325.54 161.93 1325.67 161.329 1325.68 160.72V66.92H1553.1L1553.1 163.906ZM1398.06 51.455H1252.4V15.469H1398.08C1398.08 15.525 1398.06 15.577 1398.06 15.633V51.455ZM1553.1 51.455H1406.44V15.633C1406.44 15.577 1406.43 15.525 1406.42 15.469H1553.1L1553.1 51.455ZM1097.69 15.469H1244.03V51.455H1097.75V16.046C1097.74 15.8526 1097.72 15.6599 1097.69 15.469V15.469ZM1097.75 66.924H1317.3V160.724C1317.3 161.333 1317.44 161.934 1317.7 162.484C1317.96 163.035 1318.34 163.521 1318.81 163.91H1097.75V66.924Z" fill="#645D6A"/>
<path id="Vector_25" d="M1147.55 460.1H980.022C971.794 460.076 963.91 456.797 958.092 450.979C952.274 445.161 948.994 437.277 948.97 429.049V217.383C948.97 211.732 951.079 205.902 953.746 201.325C948.014 206.967 943.884 215.332 943.884 223.961V435.63C943.908 443.858 947.188 451.742 953.006 457.56C958.824 463.378 966.708 466.657 974.936 466.681H1142.46C1146.2 466.524 1156.63 465.569 1164.39 457.56C1166.17 455.794 1167.73 453.812 1169.01 451.66C1163.18 457.075 1155.51 460.088 1147.55 460.1V460.1Z" fill="#645D6A"/>
<path id="Vector_26" d="M1441.6 460.948H1274.08C1265.85 460.924 1257.96 457.645 1252.15 451.827C1246.33 446.009 1243.05 438.125 1243.03 429.897V218.228C1243.18 212.62 1244.79 207.148 1247.69 202.347C1241.61 208.257 1238.1 216.328 1237.94 224.806V436.475C1237.96 444.703 1241.24 452.587 1247.06 458.405C1252.88 464.223 1260.76 467.502 1268.99 467.526H1436.52C1440.25 467.369 1450.69 466.414 1458.45 458.405C1460.24 456.612 1461.81 454.603 1463.12 452.424C1457.27 457.865 1449.59 460.908 1441.6 460.948V460.948Z" fill="#645D6A"/>
<path id="Vector_27" d="M853.008 460.948H685.482C677.255 460.924 669.371 457.645 663.553 451.828C657.735 446.011 654.456 438.127 654.431 429.9V218.228C654.434 212.77 655.89 207.411 658.649 202.702C655.707 205.582 653.369 209.02 651.773 212.815C650.176 216.61 649.352 220.685 649.349 224.802V436.475C649.373 444.703 652.652 452.587 658.47 458.405C664.288 464.223 672.172 467.502 680.4 467.526H847.922C851.655 467.369 862.092 466.414 869.852 458.405C871.537 456.79 872.998 454.958 874.197 452.956C868.418 458.235 860.834 461.095 853.008 460.948V460.948Z" fill="#645D6A"/>
<path id="Vector_28" d="M1887.55 460.948H1813.87C1796.79 460.948 1782.82 446.421 1782.82 428.665V219.46C1782.82 213.334 1785.1 207.02 1787.98 202.127C1781.6 208.469 1777.92 217.041 1777.74 226.038V435.244C1777.74 452.999 1791.71 467.526 1808.79 467.526L1888.31 467.235L1887.55 460.948Z" fill="#645D6A"/>
<path id="Vector_29" d="M546.267 459.948H164.451C155.251 459.948 151.506 450.22 155.569 441.61L267.133 203.269C268.668 200.219 270.599 197.385 272.878 194.842C266.351 197.889 258.688 204.15 255.414 211.09L143.219 448.85C139.156 457.459 145.164 467.526 154.365 467.526H536.181C542.921 466.961 556.137 464.926 558.417 457.812C557.425 458.271 556.402 458.661 555.357 458.98C552.403 459.81 549.33 460.137 546.267 459.948V459.948Z" fill="#645D6A"/>
<path id="Vector_30" d="M211.341 919.452C199.134 911.798 50.723 931.37 16.862 876.152C7.01302 872.87 -0.0999813 897.793 5.23502 924.137V924.143C0.751019 932.592 -1.69398 946.858 1.35402 963.5C19.382 1016.81 209.428 1020.49 212.507 1007.4C215.501 994.669 214.852 970.846 214.632 964.865C214.412 958.884 217.481 923.3 211.341 919.452V919.452Z" fill="#645D6A"/>
<path id="Vector_31" d="M5.239 924.143C-5.161 907.043 8.453 864.264 16.862 876.154C56.062 931.587 198.017 911.999 211.341 919.454C218.066 926.124 217.222 945.42 214.716 967.491C92.221 974.732 19.109 946.934 5.239 924.143V924.143Z" fill="#B5CDD2"/>
<path id="Vector_32" d="M1906.64 910.1C1894.13 977.538 1790.62 954.372 1772.19 960.374C1766.56 962.209 1769.69 1001.59 1773.91 1008.06C1782.91 1021.81 1937.85 1025.86 1943.03 967.778C1951.41 920.14 1914.97 906.081 1906.64 910.1Z" fill="#645D6A"/>
<g id="Group">
<path id="Vector_33" d="M1618.1 537.594H1746.25C1747.12 537.605 1747.99 537.441 1748.81 537.113C1749.62 536.785 1750.36 536.299 1750.98 535.683C1751.61 535.067 1752.1 534.334 1752.44 533.525C1752.78 532.716 1752.95 531.848 1752.95 530.972C1752.95 530.095 1752.78 529.227 1752.44 528.418C1752.1 527.609 1751.61 526.876 1750.98 526.26C1750.36 525.644 1749.62 525.158 1748.81 524.83C1747.99 524.502 1747.12 524.338 1746.25 524.349H1618.1C1617.22 524.338 1616.35 524.502 1615.54 524.83C1614.73 525.158 1613.99 525.644 1613.36 526.26C1612.74 526.876 1612.25 527.609 1611.91 528.418C1611.57 529.227 1611.4 530.095 1611.4 530.972C1611.4 531.848 1611.57 532.716 1611.91 533.525C1612.25 534.334 1612.74 535.067 1613.36 535.683C1613.99 536.299 1614.73 536.785 1615.54 537.113C1616.35 537.441 1617.22 537.605 1618.1 537.594V537.594Z" fill="#2B252C"/>
<path id="Vector_34" d="M1746.25 547.84H1618.1C1617.22 547.829 1616.35 547.993 1615.54 548.321C1614.73 548.649 1613.99 549.135 1613.36 549.751C1612.74 550.367 1612.25 551.1 1611.91 551.909C1611.57 552.718 1611.4 553.586 1611.4 554.463C1611.4 555.339 1611.57 556.207 1611.91 557.016C1612.25 557.825 1612.74 558.558 1613.36 559.174C1613.99 559.79 1614.73 560.276 1615.54 560.604C1616.35 560.932 1617.22 561.096 1618.1 561.085H1746.25C1747.12 561.096 1747.99 560.932 1748.81 560.604C1749.62 560.276 1750.36 559.79 1750.98 559.174C1751.61 558.558 1752.1 557.825 1752.44 557.016C1752.78 556.207 1752.95 555.339 1752.95 554.463C1752.95 553.586 1752.78 552.718 1752.44 551.909C1752.1 551.1 1751.61 550.367 1750.98 549.751C1750.36 549.135 1749.62 548.649 1748.81 548.321C1747.99 547.993 1747.12 547.829 1746.25 547.84H1746.25Z" fill="#2B252C"/>
<path id="Vector_35" d="M1746.25 573.4H1618.1C1616.34 573.4 1614.66 574.098 1613.42 575.34C1612.17 576.582 1611.48 578.266 1611.48 580.023C1611.48 581.78 1612.17 583.464 1613.42 584.706C1614.66 585.948 1616.34 586.646 1618.1 586.646H1746.25C1748 586.646 1749.69 585.948 1750.93 584.706C1752.17 583.464 1752.87 581.78 1752.87 580.023C1752.87 578.266 1752.17 576.582 1750.93 575.34C1749.69 574.098 1748 573.4 1746.25 573.4H1746.25Z" fill="#2B252C"/>
<path id="Vector_36" d="M1746.25 596.892H1618.1C1617.22 596.881 1616.35 597.045 1615.54 597.373C1614.73 597.701 1613.99 598.187 1613.36 598.803C1612.74 599.419 1612.25 600.152 1611.91 600.961C1611.57 601.77 1611.4 602.638 1611.4 603.515C1611.4 604.391 1611.57 605.259 1611.91 606.068C1612.25 606.877 1612.74 607.61 1613.36 608.226C1613.99 608.842 1614.73 609.328 1615.54 609.656C1616.35 609.984 1617.22 610.148 1618.1 610.137H1746.25C1747.12 610.148 1747.99 609.984 1748.81 609.656C1749.62 609.328 1750.36 608.842 1750.98 608.226C1751.61 607.61 1752.1 606.877 1752.44 606.068C1752.78 605.259 1752.95 604.391 1752.95 603.515C1752.95 602.638 1752.78 601.77 1752.44 600.961C1752.1 600.152 1751.61 599.419 1750.98 598.803C1750.36 598.187 1749.62 597.701 1748.81 597.373C1747.99 597.045 1747.12 596.881 1746.25 596.892H1746.25Z" fill="#2B252C"/>
<path id="Vector_37" d="M1746.25 625.4H1618.1C1617.22 625.389 1616.35 625.553 1615.54 625.881C1614.73 626.209 1613.99 626.695 1613.36 627.311C1612.74 627.927 1612.25 628.66 1611.91 629.469C1611.57 630.278 1611.4 631.146 1611.4 632.023C1611.4 632.899 1611.57 633.767 1611.91 634.576C1612.25 635.385 1612.74 636.118 1613.36 636.734C1613.99 637.35 1614.73 637.836 1615.54 638.164C1616.35 638.492 1617.22 638.656 1618.1 638.645H1746.25C1747.12 638.656 1747.99 638.492 1748.81 638.164C1749.62 637.836 1750.36 637.35 1750.98 636.734C1751.61 636.118 1752.1 635.385 1752.44 634.576C1752.78 633.767 1752.95 632.899 1752.95 632.023C1752.95 631.146 1752.78 630.278 1752.44 629.469C1752.1 628.66 1751.61 627.927 1750.98 627.311C1750.36 626.695 1749.62 626.209 1748.81 625.881C1747.99 625.553 1747.12 625.389 1746.25 625.4H1746.25Z" fill="#2B252C"/>
<path id="Vector_38" d="M1746.25 648.9H1618.1C1616.34 648.9 1614.66 649.598 1613.42 650.84C1612.17 652.082 1611.48 653.766 1611.48 655.523C1611.48 657.28 1612.17 658.964 1613.42 660.206C1614.66 661.448 1616.34 662.146 1618.1 662.146H1746.25C1748 662.146 1749.69 661.448 1750.93 660.206C1752.17 658.964 1752.87 657.28 1752.87 655.523C1752.87 653.766 1752.17 652.082 1750.93 650.84C1749.69 649.598 1748 648.9 1746.25 648.9H1746.25Z" fill="#2B252C"/>
<path id="Vector_39" d="M1746.25 674.455H1618.1C1616.34 674.455 1614.66 675.153 1613.42 676.395C1612.17 677.637 1611.48 679.321 1611.48 681.078C1611.48 682.835 1612.17 684.519 1613.42 685.761C1614.66 687.003 1616.34 687.701 1618.1 687.701H1746.25C1748 687.701 1749.69 687.003 1750.93 685.761C1752.17 684.519 1752.87 682.835 1752.87 681.078C1752.87 679.321 1752.17 677.637 1750.93 676.395C1749.69 675.153 1748 674.455 1746.25 674.455H1746.25Z" fill="#2B252C"/>
<path id="Vector_40" d="M1746.25 697.947H1618.1C1617.22 697.936 1616.35 698.1 1615.54 698.428C1614.73 698.756 1613.99 699.242 1613.36 699.858C1612.74 700.474 1612.25 701.207 1611.91 702.016C1611.57 702.825 1611.4 703.693 1611.4 704.57C1611.4 705.446 1611.57 706.314 1611.91 707.123C1612.25 707.932 1612.74 708.665 1613.36 709.281C1613.99 709.897 1614.73 710.383 1615.54 710.711C1616.35 711.039 1617.22 711.203 1618.1 711.192H1746.25C1747.12 711.203 1747.99 711.039 1748.81 710.711C1749.62 710.383 1750.36 709.897 1750.98 709.281C1751.61 708.665 1752.1 707.932 1752.44 707.123C1752.78 706.314 1752.95 705.446 1752.95 704.57C1752.95 703.693 1752.78 702.825 1752.44 702.016C1752.1 701.207 1751.61 700.474 1750.98 699.858C1750.36 699.242 1749.62 698.756 1748.81 698.428C1747.99 698.1 1747.12 697.936 1746.25 697.947H1746.25Z" fill="#2B252C"/>
<path id="Vector_41" d="M1746.25 721.799H1618.1C1614.44 721.799 1611.48 724.764 1611.48 728.422C1611.48 732.079 1614.44 735.044 1618.1 735.044H1746.25C1749.91 735.044 1752.87 732.079 1752.87 728.422C1752.87 724.764 1749.91 721.799 1746.25 721.799Z" fill="#2B252C"/>
<path id="Vector_42" d="M533.153 589.079L464.071 582.962C462.677 582.813 461.388 582.148 460.459 581.098C459.53 580.047 459.027 578.687 459.05 577.285C459.026 575.853 459.55 574.466 460.515 573.409C461.481 572.351 462.814 571.703 464.242 571.596L533.325 567.733C534.084 567.705 534.84 567.833 535.548 568.108C536.256 568.383 536.9 568.8 537.442 569.332C537.983 569.865 538.41 570.503 538.696 571.206C538.983 571.909 539.122 572.664 539.107 573.423V583.4C539.123 584.174 538.978 584.942 538.681 585.657C538.384 586.372 537.941 587.017 537.381 587.551C536.821 588.085 536.156 588.497 535.428 588.76C534.7 589.023 533.925 589.132 533.153 589.079V589.079Z" fill="#2B252C"/>
</g>
<path id="Vector_43" d="M39.57 652.726C40.0822 652.756 40.5862 652.868 41.063 653.057C55.994 657.744 57.072 698.484 53.642 726.87C49.848 758.27 35.832 796.328 23.81 795.67C23.2116 795.635 22.622 795.509 22.062 795.295C42.506 801.431 58.821 773.78 63.591 728.695C68.335 683.857 62.391 652.726 39.57 652.726V652.726Z" fill="#27252C"/>
<path id="Vector_44" d="M53.642 726.87C48.867 766.386 35.254 798.499 23.715 795.849C9.84401 792.664 4.88501 761 8.53801 721.367C12.212 681.521 26.398 651.079 41.005 652.748C52.767 654.092 58.416 687.353 53.642 726.87Z" fill="#FFFF00"/>
<path id="Vector_45" d="M80.811 589.287C81.1252 589.317 81.4334 589.393 81.726 589.511C91.38 592.331 92.076 616.839 89.859 633.911C87.405 652.806 78.344 675.7 70.57 675.3C70.1845 675.28 69.8039 675.204 69.44 675.075C82.659 678.766 93.207 662.132 96.291 635.011C99.359 608.04 95.566 589.287 80.811 589.287Z" fill="#27252C"/>
<path id="Vector_46" d="M89.859 633.915C86.772 657.687 77.97 677.005 70.509 675.415C61.54 673.5 58.334 654.448 60.7 630.6C63.075 606.63 72.248 588.317 81.692 589.321C89.293 590.134 92.946 610.143 89.859 633.915Z" fill="#FFFF00"/>
</g>
<defs>
<clipPath id="clip0_0_1">
<rect width="1944.28" height="1114.26" fill="white"/>
</clipPath>
</defs>
</svg>
